<svg width="103" height="104" viewBox="0 0 103 104" fill="none" xmlns="http://www.w3.org/2000/svg">
<g clip-path="url(#clip0_5_353)">
<path d="M87.7453 15.6547C80.5569 8.46626 71.3983 3.57089 61.4276 1.58761C51.457 -0.395668 41.1222 0.622225 31.7301 4.51257C22.3379 8.40292 14.3104 14.991 8.66246 23.4437C3.01455 31.8964 -1.53502e-06 41.834 0 52C1.53502e-06 62.1659 3.01456 72.1036 8.66247 80.5563C14.3104 89.009 22.338 95.597 31.7301 99.4874C41.1222 103.378 51.457 104.396 61.4276 102.412C71.3983 100.429 80.5569 95.5337 87.7453 88.3453L51.4 52L87.7453 15.6547Z" fill="#FED940"/>
</g>
<defs>
<clipPath id="clip0_5_353">
<rect width="102.8" height="102.8" fill="white" transform="translate(0 0.599976)"/>
</clipPath>
</defs>
</svg>
