<svg width="184" height="216" viewBox="0 0 184 216" fill="none" xmlns="http://www.w3.org/2000/svg">
<path d="M5.75787 200.296C3.95366 206.026 1.86514 210.254 0.431606 215.604C20.0954 192.185 33.5733 163.285 61.2012 145.826C63.3373 152.137 55.8958 154.926 53.8004 159.13C64.8087 157.297 71.0728 144.635 82.0811 142.802C81.7781 147.499 79.0369 150.596 76.9415 154.8C84.861 150.228 91.6446 146.312 99.0281 141.882C102.2 139.71 105.239 137.455 108.164 135.072C114.75 129.744 120.717 123.694 125.954 117.035C127.728 114.718 129.421 112.331 131.053 109.804C144.545 91.6363 165.525 109.686 183.8 102.15C153.538 75.857 153.539 36.6693 149 0.0748291C132.549 18.6036 118.728 41.686 94.1387 51.353C78.783 58.7112 94.7111 70.6335 98.8055 80.3363C101.585 87.7622 92.3665 90.0837 88.9089 95.5256C85.5923 98.2879 82.0287 100.887 78.3501 103.456C44.5553 122.217 10.9663 147.639 0.447059 186.898C4.32191 183.153 4.92479 173.753 7.36089 175.362C16.2859 177.753 5.15999 187.192 6.79347 194.064C6.16972 197.772 5.75787 200.296 5.75787 200.296Z" fill="white"/>
<path d="M126.391 85.834C124.635 91.1064 119.804 98.4177 124.507 98.731C133.432 101.122 144.699 84.0585 136.555 75.1864C135.451 75.8148 134.396 76.5259 133.399 77.3138C130.666 79.8027 128.306 82.6722 126.391 85.834Z" fill="black"/>
<path d="M111.728 80.0377C110.2 84.3935 106.31 88.1121 107.615 90.3733C109.265 98.4519 118.146 90.3234 120.89 87.2315C125.237 81.7066 128.291 73.9278 126.801 68.737C125.312 63.5462 122.757 69.5647 119.898 69.9438C116.826 73.011 114.088 76.3944 111.728 80.0377Z" fill="black"/>
<path d="M144.831 75.7085C146.683 68.3873 146.521 59.9498 142.602 63.1849C139.985 65.342 142.93 71.3322 143.348 75.0159C143.514 75.8576 144.185 76.1651 144.831 75.7085Z" fill="black"/>
<path d="M123.938 60.4212C129.204 56.5823 133.046 50.8209 136.212 56.0512C132.019 59.9793 128.262 59.4878 125.016 61.7096C124.21 62.0221 123.733 61.4497 123.938 60.4212Z" fill="black"/>
</svg>
