<svg width="192" height="228" viewBox="0 0 192 228" fill="none" xmlns="http://www.w3.org/2000/svg">
<path fill-rule="evenodd" clip-rule="evenodd" d="M161.644 3.21753L189.426 34.0462C192.593 37.5543 191.706 43.8058 187.39 48.1671L153.735 82.2074C152.473 83.4786 151.47 84.9492 150.792 86.5204C150.114 88.0917 149.778 89.7272 149.805 91.3173L150.045 99.557C149.779 107.245 154.865 117.157 148.119 122.212C141.426 127.252 134.525 132.007 127.442 136.461C124.866 138.068 122.14 139.679 119.096 141.332C116.781 142.538 114.221 143.839 111.461 145.201C108.701 146.563 105.699 147.882 102.238 149.23C94.5187 152.251 86.69 154.844 78.796 156.993C75.9799 157.78 73.1645 158.459 70.0819 159.249C67.3863 159.806 64.7031 160.536 62.0516 161.434C59.4465 162.31 56.8719 163.323 54.341 164.467C51.6651 165.6 49.0757 166.982 46.6157 168.59C44.2365 170.148 41.9716 171.882 39.8467 173.77C20.8285 188.187 20.404 211.049 4.29669 227.039C3.54716 227.601 1.38651 226.28 0.916143 225.652C3.50128 204.111 8.99663 183.33 24.0843 166.526C25.9636 164.379 27.9221 162.307 29.9599 160.31C32.0324 158.296 34.1858 156.359 36.4303 154.481C38.6789 152.796 40.9792 151.18 43.3078 149.602C50.2888 144.861 57.4798 140.541 64.355 136.409C66.6381 135.13 68.8436 133.918 71.0058 132.68C73.1681 131.442 75.1728 130.322 77.1784 129.094C79.4552 127.735 81.6568 126.242 83.7677 124.627C85.8663 123.017 87.827 121.239 89.6216 119.319C91.6136 117.289 93.2318 114.971 94.3861 112.495C95.5092 110.062 96.1916 107.529 96.4009 105.016C95.7876 102.754 95.421 100.403 95.3064 97.9944L94.7643 89.4613C94.6217 87.0755 95.3277 84.5763 96.7733 82.3492L145.162 7.19673C149.305 0.760303 157.63 -1.23378 161.644 3.21753ZM133.845 40.201C133.772 39.6891 133.901 39.1374 134.209 38.6458C134.517 38.1542 134.984 37.7554 135.524 37.5217C135.777 37.4133 136.041 37.3548 136.301 37.3502C136.56 37.3455 136.808 37.3948 137.028 37.4948C137.247 37.5947 137.433 37.7429 137.572 37.9292C137.711 38.1155 137.801 38.3355 137.835 38.5743L138.707 43.6744L144.173 41.4411C144.424 41.3245 144.691 41.2592 144.953 41.2502C145.215 41.2412 145.465 41.2886 145.687 41.3889C145.908 41.4893 146.094 41.64 146.231 41.8301C146.368 42.0202 146.452 42.2448 146.478 42.4875C146.555 42.9977 146.428 43.549 146.121 44.0402C145.814 44.5313 145.347 44.9293 144.807 45.1612L139.341 47.3945L140.213 52.4946C140.29 53.0049 140.163 53.5562 139.856 54.0473C139.549 54.5384 139.082 54.9365 138.542 55.1684C138.289 55.2765 138.024 55.335 137.765 55.3398C137.505 55.3447 137.257 55.2958 137.038 55.1965C136.818 55.0972 136.631 54.9499 136.491 54.7644C136.351 54.5789 136.26 54.3596 136.224 54.1213L135.352 49.0213L129.886 51.2546C129.634 51.3635 129.37 51.4226 129.111 51.4279C128.852 51.4331 128.605 51.3844 128.386 51.285C128.167 51.1855 127.981 51.0378 127.842 50.8519C127.703 50.6661 127.614 50.4464 127.58 50.2082C127.502 49.698 127.628 49.146 127.935 48.6544C128.243 48.1628 128.71 47.765 129.252 47.5345L134.718 45.3011L133.845 40.201ZM141.139 72.5515L126.112 74.8328C125.552 74.9392 125.018 75.2334 124.611 75.6596C124.203 76.0858 123.951 76.6146 123.901 77.1461C123.863 77.3966 123.88 77.643 123.953 77.8688C124.025 78.0946 124.151 78.2947 124.321 78.4555C124.492 78.6164 124.703 78.7344 124.941 78.8017C125.179 78.869 125.438 78.884 125.701 78.8457L140.728 76.5643C141.288 76.4578 141.822 76.1638 142.23 75.7376C142.637 75.3113 142.889 74.7825 142.939 74.251C142.978 74.0005 142.96 73.7541 142.888 73.5283C142.815 73.3025 142.689 73.1025 142.519 72.9416C142.349 72.7807 142.137 72.6627 141.899 72.5954C141.661 72.5281 141.402 72.5132 141.139 72.5515ZM155.715 50.1125C155.638 49.6022 155.765 49.051 156.072 48.5598C156.379 48.0687 156.846 47.6706 157.386 47.4387C157.638 47.3306 157.903 47.2721 158.163 47.2673C158.422 47.2624 158.67 47.3113 158.89 47.4106C159.11 47.5098 159.296 47.6572 159.437 47.8427C159.577 48.0282 159.668 48.2476 159.704 48.4858L160.569 53.5915L166.035 51.3582C166.286 51.248 166.551 51.1878 166.81 51.1816C167.07 51.1755 167.318 51.2235 167.538 51.3224C167.758 51.4214 167.944 51.5688 168.084 51.7547C168.224 51.9405 168.314 52.1603 168.347 52.3989C168.424 52.9092 168.297 53.4605 167.99 53.9516C167.683 54.4427 167.216 54.8408 166.676 55.0727L161.21 57.306L162.082 62.4061C162.156 62.918 162.027 63.4698 161.719 63.9614C161.411 64.453 160.944 64.8518 160.403 65.0855C160.151 65.1924 159.887 65.2497 159.628 65.2537C159.369 65.2576 159.122 65.208 158.903 65.1083C158.684 65.0085 158.498 64.8608 158.359 64.6753C158.219 64.4898 158.128 64.2707 158.093 64.0328L157.221 58.9327L151.755 61.1661C151.503 61.2747 151.239 61.3338 150.98 61.3392C150.721 61.3447 150.474 61.2964 150.254 61.1977C150.035 61.0989 149.848 60.952 149.708 60.767C149.568 60.5819 149.477 60.363 149.442 60.1253C149.365 59.6135 149.492 59.0603 149.801 58.5678C150.109 58.0754 150.578 57.6769 151.121 57.4459L156.587 55.2126L155.715 50.1125Z" fill="white"/>
<path d="M126.093 74.8077L141.12 72.5264C141.383 72.4881 141.643 72.503 141.881 72.5703C142.119 72.6376 142.33 72.7557 142.5 72.9165C142.671 73.0774 142.796 73.2774 142.869 73.5032C142.941 73.729 142.959 73.9754 142.92 74.2259C142.871 74.7574 142.618 75.2863 142.211 75.7125C141.803 76.1387 141.269 76.4328 140.709 76.5392L125.683 78.8206C125.419 78.8589 125.16 78.8439 124.922 78.7766C124.684 78.7093 124.473 78.5913 124.302 78.4305C124.132 78.2696 124.006 78.0696 123.934 77.8438C123.862 77.618 123.844 77.3715 123.882 77.121C123.932 76.5895 124.185 76.0607 124.592 75.6345C124.999 75.2083 125.533 74.9142 126.093 74.8077Z" fill="black"/>
<path d="M133.845 40.201C133.772 39.6891 133.901 39.1374 134.209 38.6458C134.517 38.1542 134.984 37.7554 135.524 37.5217C135.777 37.4133 136.041 37.3548 136.301 37.3502C136.56 37.3455 136.808 37.3948 137.028 37.4948C137.247 37.5947 137.433 37.7429 137.572 37.9292C137.711 38.1155 137.801 38.3355 137.835 38.5743L138.707 43.6744L144.173 41.4411C144.424 41.3245 144.691 41.2592 144.953 41.2502C145.215 41.2412 145.465 41.2886 145.687 41.3889C145.908 41.4893 146.094 41.64 146.231 41.8301C146.368 42.0202 146.452 42.2448 146.478 42.4875C146.555 42.9977 146.428 43.549 146.121 44.0402C145.814 44.5313 145.347 44.9293 144.807 45.1612L139.341 47.3945L140.213 52.4946C140.29 53.0049 140.163 53.5562 139.856 54.0473C139.549 54.5384 139.082 54.9365 138.542 55.1684C138.289 55.2765 138.024 55.335 137.765 55.3398C137.505 55.3447 137.257 55.2958 137.038 55.1965C136.818 55.0972 136.631 54.9499 136.491 54.7644C136.351 54.5789 136.26 54.3596 136.224 54.1213L135.352 49.0213L129.886 51.2546C129.634 51.3635 129.37 51.4226 129.111 51.4279C128.852 51.4331 128.605 51.3844 128.386 51.285C128.167 51.1855 127.981 51.0378 127.842 50.8519C127.703 50.6661 127.614 50.4464 127.58 50.2082C127.502 49.698 127.628 49.146 127.935 48.6544C128.243 48.1628 128.71 47.765 129.252 47.5345L134.718 45.3011L133.845 40.201Z" fill="black"/>
<path d="M155.696 50.0874C155.619 49.5771 155.746 49.0259 156.053 48.5347C156.36 48.0436 156.827 47.6455 157.367 47.4136C157.62 47.3055 157.885 47.247 158.144 47.2422C158.404 47.2373 158.652 47.2862 158.871 47.3855C159.091 47.4847 159.278 47.6321 159.418 47.8176C159.558 48.0031 159.649 48.2224 159.685 48.4607L160.55 53.5664L166.016 51.3331C166.267 51.2229 166.532 51.1627 166.792 51.1565C167.051 51.1504 167.299 51.1984 167.519 51.2973C167.739 51.3963 167.925 51.5437 168.065 51.7296C168.205 51.9154 168.295 52.1352 168.329 52.3738C168.405 52.8841 168.278 53.4354 167.971 53.9265C167.664 54.4176 167.198 54.8157 166.657 55.0476L161.191 57.2809L162.064 62.381C162.137 62.8929 162.008 63.4447 161.7 63.9363C161.392 64.4279 160.925 64.8267 160.385 65.0604C160.132 65.1673 159.868 65.2246 159.609 65.2286C159.35 65.2325 159.103 65.1829 158.884 65.0832C158.665 64.9834 158.479 64.8357 158.34 64.6502C158.2 64.4647 158.11 64.2456 158.074 64.0077L157.202 58.9076L151.736 61.1409C151.485 61.2496 151.22 61.3086 150.961 61.3141C150.702 61.3196 150.455 61.2713 150.235 61.1726C150.016 61.0738 149.83 60.9269 149.689 60.7419C149.549 60.5568 149.459 60.3379 149.423 60.1002C149.346 59.5884 149.473 59.0352 149.782 58.5427C150.091 58.0503 150.559 57.6518 151.102 57.4208L156.568 55.1875L155.696 50.0874Z" fill="black"/>
</svg>
