<svg width="224" height="259" viewBox="0 0 224 259" fill="none" xmlns="http://www.w3.org/2000/svg">
<path fill-rule="evenodd" clip-rule="evenodd" d="M161.004 214.285C145.412 206.111 129.895 195.101 122.434 179.542C120.884 176.464 119.753 173.193 119.07 169.815C118.377 166.271 118.235 162.641 118.648 159.054C119.183 156.001 119.995 153.003 121.074 150.097C122.311 147.27 123.788 144.554 125.489 141.978C127.264 138.895 129.107 135.968 130.999 133.075C132.89 130.182 134.846 127.424 136.82 124.643C141.054 118.675 143.749 109.82 136.587 104.738C134.291 103.192 131.718 102.104 129.009 101.533C126.036 100.856 123.023 100.372 119.987 100.084C84.7124 101.973 89.8685 64.3569 83.6677 40.2172C76.9667 19.3116 35.6162 16.8895 21.1789 24.5909C-22.6332 50.9295 11.9466 118.535 38.8907 153.122C40.1303 156.155 41.234 159.253 42.3258 162.343C44.2945 171.325 48.2227 179.762 53.8297 187.051C55.6823 189.466 57.6852 191.763 59.8265 193.926C70.3068 201.935 81.2829 209.274 92.6891 215.898C96.72 218.184 100.839 220.371 105.123 222.477C142.714 240.087 183.063 248.977 223.567 252.593C208.204 236.308 185.565 232.807 168.937 219.214C166.354 217.644 163.71 216.001 161.004 214.285Z" fill="white"/>
<path d="M79.2118 125.204C81.3785 131.963 89.0799 146.4 80.9178 147.787C63.7466 151.754 61.7805 121.646 63.4348 106.669C67.0156 109.21 71.7901 112.598 74.8286 116.889C76.5152 119.536 77.9812 122.317 79.2118 125.204Z" fill="black"/>
<path d="M39.6606 88.4544C45.0303 97.1995 46.7638 107.402 39.6417 114.911C33.8667 117.991 28.7456 112.563 26.8586 107.635C25.4719 99.4727 22.1982 86.3826 31.618 82.3888C33.9996 82.3201 36.919 84.4274 39.6606 88.4544Z" fill="black"/>
<path d="M68.9403 68.2065C72.5183 73.6345 74.752 80.603 69.3237 85.7242C67.7513 86.7752 65.8905 87.3103 64 87.2553C62.1094 87.2003 60.283 86.5578 58.7743 85.417C49.2255 78.6416 37.7896 66.9382 44.2184 55.3488C46.4125 49.7274 52.3805 53.962 57.9219 57.2299C62.1931 60.2344 65.9196 63.9467 68.9403 68.2065Z" fill="black"/>
</svg>
