<svg width="1190" height="210" viewBox="0 0 1190 210" fill="none" xmlns="http://www.w3.org/2000/svg">
<path d="M0 5.36573H47.9992C87.8158 10.7442 135.618 -9.47557 166.549 43.0958C180.609 75.4474 155.302 95.6672 135.618 99.7111C149.678 95.6672 163.737 107.799 166.549 119.931C174.985 152.283 155.302 180.59 135.618 196.766C107.499 212.942 76.5683 196.766 46.1997 201.538L39.9853 201.336H33.9397H28.3159H22.889H17.8838L9.58861 201.093L2.10893 200.891C2.10893 200.891 1.74338 197.615 1.40595 192.075C1.23724 189.285 1.06854 185.969 0.89983 182.167C0.731116 178.366 0.646773 174.079 0.562415 169.469C0.478058 164.859 0.562422 159.845 0.393708 154.588C0.393708 151.919 0.393708 149.25 0.393708 146.5C0.393708 143.75 0.393708 140.919 0.393708 138.048C0.393708 135.177 0.393708 132.305 0.393708 129.353C0.393708 126.401 0.393708 123.449 0.393708 120.497C0.393708 117.545 0.393708 114.512 0.393708 111.519V5.36573H0ZM141.804 59.2716C124.371 -5.43162 65.3206 30.964 29.3282 23.5231H17.5182V90.8953H39.3105C70.9444 87.5793 101.875 99.7111 132.806 83.1309C135.789 80.8965 138.239 77.4313 139.842 73.18C141.445 68.9288 142.129 64.0854 141.804 59.2716ZM140.848 149.29C132.806 79.4913 62.5087 115.887 25.5602 108.85H17.5182V114.148C17.5182 117.464 17.5182 122.236 17.5182 127.453C17.5182 130.122 17.5182 132.993 17.5182 135.904C17.5182 138.816 17.5182 141.849 17.5182 144.882C17.5182 147.915 17.5182 150.908 17.5182 153.86C17.5182 156.812 17.5182 159.683 17.6588 162.392C17.6588 167.811 17.8275 172.583 17.8838 175.98C17.94 179.377 17.8838 181.399 17.8838 181.399H26.0101H34.7552H39.9009C70.9444 172.502 107.499 204.854 135.365 163.889C137.827 159.573 139.688 154.617 140.848 149.29ZM276.523 7.10466C326.828 22.8761 318.392 144.195 349.323 200.81C343.699 200.81 335.264 204.854 332.452 200.81C324.016 184.634 321.204 148.239 315.58 148.239C279.025 128.019 245.283 148.239 217.163 204.854C214.352 208.898 205.916 204.854 200.292 204.854C234.035 156.326 273.402 107.799 275.932 29.953C276.382 15.9609 276.523 7.10466 276.523 7.10466ZM265.725 124.379C281.837 123.975 295.897 123.975 312.768 123.975C312.768 87.5793 298.709 55.2277 287.461 22.876C284.649 55.2277 279.025 87.5793 270.168 113.865C267.525 120.335 265.725 124.379 265.725 124.379ZM398.869 5.204C405.561 6.70026 413.997 2.65629 413.997 6.70024C422.433 30.964 416.809 75.4474 425.245 79.4914C467.423 115.887 512.414 55.2277 543.345 6.70024C551.78 -5.43162 560.216 10.7442 568.652 2.65629C548.968 39.0519 526.473 71.4035 495.542 91.6232C529.285 111.843 563.028 144.195 574.276 196.766C565.84 200.81 554.592 196.766 551.78 188.678C518.037 132.063 467.423 79.4914 425.245 115.887C411.185 128.019 422.433 212.942 408.373 192.722C385.878 164.414 402.749 99.7111 399.937 46.614C399.263 22.4716 398.869 5.204 398.869 5.204ZM633.072 198.505C681.128 136.107 630.514 55.2277 596.771 2.65629C636.137 6.70024 647.385 83.5353 667.068 123.975C678.316 83.5353 697.999 43.0958 713.549 5.36573H731.18C731.18 5.36573 726.231 15.88 718.751 31.9749C695.188 87.5793 672.692 144.195 647.076 198.667L633.072 198.505ZM829.906 198.181C849.842 180.59 869.526 160.37 889.209 144.195C849.842 95.6672 802.04 63.3156 765.485 6.70024C816.099 18.8321 858.278 107.799 908.892 111.843C931.388 115.887 931.388 47.1398 925.764 6.70024C931.388 6.70024 939.823 2.65629 939.823 6.70024C951.071 43.0958 956.695 83.5353 939.823 115.887C917.328 156.326 886.397 172.502 856.45 198.02L829.906 198.181ZM1066.78 170.319C1057.92 148.239 1052.3 128.019 1043.27 106.586C1039.06 96.1524 1034.84 85.9212 1030.28 76.054C1025.73 66.1868 1021.23 56.7239 1016.5 47.7463C1012.68 40.5885 1008.71 33.633 1004.5 26.8796C1007.73 35.5605 1010.54 44.545 1012.93 53.7718C1026.99 103.755 1026.99 160.37 1010.12 208.898C1007.31 212.942 998.873 204.854 998.873 200.81C1012.93 160.37 1018.56 111.843 1005.73 70.5138C1003.18 59.5142 1000.31 48.5956 997.299 37.9196C994.29 27.2435 990.916 16.8101 987.626 6.70024C994.683 7.30187 1001.55 10.2208 1007.7 15.233C1013.77 20.3803 1019.22 26.9082 1023.84 34.5631C1028.85 43.7428 1033.49 53.4483 1037.9 63.356C1052.3 91.6232 1060.74 128.019 1080.42 152.283C1105.73 111.843 1108.54 55.2277 1122.6 6.70024C1125.41 -1.38766 1136.66 -1.38766 1142.28 2.65629C1176.02 55.2277 1209.77 136.107 1176.02 204.854C1173.21 204.854 1167.59 200.81 1161.96 200.81C1178.84 136.107 1153.53 75.4474 1133.84 22.876C1133.84 79.4914 1114.16 132.063 1088.6 170.48L1066.78 170.319Z" fill="white"/>
</svg>
